# xmcd
# Copyright (C) 1995-1998 Ti Kan
#
# Track frame offsets:
#       150
#       16559
#       32484
#       46767
#       64795
#       80308
#       90100
#       111750
#       131116
#       145505
#
# Disc length: 2212 seconds
#
# Revision: 0
# Processed by: cddbd v1.5.2PL0 Copyright (c) Steve Scherf et al.
# Submitted via: CD-Import v1.0
#
DISCID=6808a20a
DTITLE=Caravan Of Fools - Welcome
DYEAR=07
DGENRE=
TTITLE0=Come With Me
TTITLE1=Green Fields Of Joy
TTITLE2=Tonight
TTITLE3=Whale
TTITLE4=Welcome
TTITLE5=Sunday
TTITLE6=Ashes To Ashes
TTITLE7=Summer Rain
TTITLE8=Icarus
TTITLE9=My Love
EXTD=
EXTT0=
EXTT1=
EXTT2=
EXTT3=
EXTT4=
EXTT5=
EXTT6=
EXTT7=
EXTT8=
EXTT9=
PLAYORDER=
